<svg width="139" height="53" viewBox="0 0 139 53" fill="none" xmlns="http://www.w3.org/2000/svg">
<g filter="url(#filter0_d_190_254)">
<mask id="path-1-inside-1_190_254" fill="white">
<path d="M4.01929 22.5C4.01929 10.0736 13.8458 0 25.9673 0H112.071C124.193 0 134.019 10.0736 134.019 22.5C134.019 34.9264 124.193 45 112.071 45H25.9673C13.8458 45 4.01929 34.9264 4.01929 22.5Z"/>
</mask>
<path d="M110.563 22.6953C111.149 22.1095 111.149 21.1597 110.563 20.574L101.017 11.028C100.431 10.4422 99.4815 10.4422 98.8957 11.028C98.3099 11.6138 98.3099 12.5635 98.8957 13.1493L107.381 21.6346L98.8957 30.1199C98.3099 30.7057 98.3099 31.6554 98.8957 32.2412C99.4815 32.827 100.431 32.827 101.017 32.2412L110.563 22.6953ZM25.0867 23.1346H109.502V20.1346H25.0867V23.1346ZM25.9673 3H112.071V-3H25.9673V3ZM112.071 42H25.9673V48H112.071V42ZM25.9673 42C15.5724 42 7.01929 33.3402 7.01929 22.5H1.01929C1.01929 36.5126 12.1191 48 25.9673 48V42ZM131.019 22.5C131.019 33.3402 122.466 42 112.071 42V48C125.919 48 137.019 36.5126 137.019 22.5H131.019ZM112.071 3C122.466 3 131.019 11.6598 131.019 22.5H137.019C137.019 8.48742 125.919 -3 112.071 -3V3ZM25.9673 -3C12.1191 -3 1.01929 8.48742 1.01929 22.5H7.01929C7.01929 11.6598 15.5724 3 25.9673 3V-3Z" fill="black" mask="url(#path-1-inside-1_190_254)"/>
</g>
<defs>
<filter id="filter0_d_190_254" x="0.0192871" y="0" width="138" height="53" filterUnits="userSpaceOnUse" color-interpolation-filters="sRGB">
<feFlood flood-opacity="0" result="BackgroundImageFix"/>
<feColorMatrix in="SourceAlpha" type="matrix" values="0 0 0 0 0 0 0 0 0 0 0 0 0 0 0 0 0 0 127 0" result="hardAlpha"/>
<feOffset dy="4"/>
<feGaussianBlur stdDeviation="2"/>
<feComposite in2="hardAlpha" operator="out"/>
<feColorMatrix type="matrix" values="0 0 0 0 0 0 0 0 0 0 0 0 0 0 0 0 0 0 0.25 0"/>
<feBlend mode="normal" in2="BackgroundImageFix" result="effect1_dropShadow_190_254"/>
<feBlend mode="normal" in="SourceGraphic" in2="effect1_dropShadow_190_254" result="shape"/>
</filter>
</defs>
</svg>
