<svg width="245" height="104" viewBox="0 0 245 104" fill="none" xmlns="http://www.w3.org/2000/svg">
<rect x="1.7368" y="1.21612" width="234.798" height="59.5834" transform="matrix(0.984719 -0.174153 0.173145 0.984896 -0.184024 41.7339)" stroke="black" stroke-width="3"/>
<g filter="url(#filter0_d_159_268)">
<path d="M63.0609 78.5961L62.1606 73.4747C62.4448 73.3973 62.7198 73.2674 62.9856 73.085C63.2467 72.8764 63.4747 72.6329 63.6695 72.3548C63.8596 72.0503 63.9926 71.7289 64.0685 71.3905C64.1707 71.0475 64.1894 70.6921 64.1248 70.3244C64.0094 69.6678 63.7108 69.1249 63.2292 68.6955C62.743 68.2399 62.1524 67.884 61.4576 67.6277C60.7844 67.3406 60.1096 67.1214 59.4332 66.9702C58.7568 66.8191 58.1553 66.7088 57.6286 66.6395C57.102 66.5701 56.7553 66.5231 56.5885 66.4984C55.7854 66.3967 54.9477 66.0981 54.0754 65.6024C53.2294 65.1021 52.4691 64.3971 51.7947 63.4873C51.142 62.5466 50.7002 61.4196 50.4694 60.1064C50.2246 58.7144 50.2686 57.5016 50.6013 56.4678C50.9557 55.4032 51.4628 54.5146 52.1228 53.8022C52.7781 53.0634 53.4611 52.4822 54.1718 52.0587C54.9088 51.6304 55.5268 51.3722 56.0257 51.284L56.9399 56.4842C56.7437 56.6002 56.5521 56.7424 56.3651 56.9108C56.2044 57.0747 56.0637 57.2756 55.9431 57.5135C55.8487 57.7469 55.7698 57.991 55.7063 58.246C55.6691 58.4963 55.6736 58.7528 55.7197 59.0154C55.8029 59.4881 55.9926 59.8743 56.2889 60.174C56.6116 60.469 57.0192 60.7083 57.5117 60.892C58.0043 61.0757 58.5494 61.2501 59.147 61.4152C59.7663 61.5494 60.4272 61.6898 61.1299 61.8363C61.8325 61.9828 62.5444 62.1819 63.2655 62.4335C64.1843 62.7314 65.0822 63.1413 65.9591 63.6632C66.8361 64.1851 67.6048 64.8616 68.2653 65.6926C68.9213 66.4973 69.36 67.53 69.5816 68.7907C69.8448 70.2877 69.7219 71.7447 69.2129 73.1617C68.6993 74.5524 67.8946 75.7508 66.799 76.757C65.7249 77.7323 64.4789 78.3453 63.0609 78.5961ZM60.8945 78.9792C59.8179 79.1697 58.794 79.1206 57.8227 78.832C56.8776 78.5387 56.0168 78.1087 55.2403 77.542C54.49 76.9706 53.8819 76.3605 53.4158 75.7118C52.9498 75.063 52.6683 74.4629 52.5714 73.9113L57.2621 71.2538C57.3544 71.7791 57.5557 72.2309 57.8659 72.6094C58.1715 72.9615 58.518 73.2387 58.9056 73.441C59.2931 73.6433 59.656 73.7822 59.9942 73.8578L60.8945 78.9792ZM61.2805 58.0726C61.202 57.6261 61.03 57.2638 60.7645 56.9858C60.5253 56.7032 60.2582 56.4931 59.9633 56.3557C59.6638 56.192 59.3781 56.1072 59.1063 56.1011L58.1921 50.9008C59.2425 50.7151 60.2247 50.758 61.1389 51.0296C62.0484 51.275 62.8606 51.6594 63.5754 52.1829C64.2902 52.7064 64.8628 53.2686 65.2933 53.8695C65.7501 54.4657 66.0201 55.0002 66.1032 55.4729L61.2805 58.0726ZM83.7714 75.0146L82.7879 69.4204C83.1293 69.36 83.4329 69.2386 83.6986 69.0562C83.9861 68.8429 84.2271 68.5972 84.4219 68.319C84.6383 68.0099 84.7822 67.673 84.8535 67.3084C84.951 66.9391 84.9628 66.5443 84.8889 66.1241L82.9566 55.1327C82.8782 54.6862 82.7432 54.3038 82.5519 53.9856C82.356 53.6412 82.1168 53.3585 81.8343 53.1377C81.5734 52.8859 81.2739 52.7222 80.9357 52.6466C80.5929 52.5448 80.2245 52.5287 79.8306 52.5984L78.8541 47.0435C79.957 46.8485 81.0311 46.8752 82.0766 47.1236C83.1483 47.3673 84.1165 47.7919 84.981 48.3972C85.8672 48.9717 86.6058 49.7076 87.1968 50.6051C87.8094 51.4716 88.2103 52.4433 88.3996 53.5201L90.4774 65.3389C90.6805 66.4945 90.6729 67.6061 90.4545 68.6738C90.2623 69.7369 89.8787 70.7119 89.3036 71.599C88.7238 72.4597 87.9589 73.1908 87.0086 73.7921C86.0847 74.3888 85.0056 74.7963 83.7714 75.0146ZM81.5656 75.4047C80.4628 75.5997 79.3886 75.5731 78.3431 75.3247C77.293 75.05 76.3203 74.5992 75.4249 73.9722C74.5557 73.3406 73.8102 72.5653 73.1883 71.6462C72.5927 70.7225 72.198 69.7091 72.0041 68.606L69.9263 56.7872C69.737 55.7104 69.7693 54.6621 70.0233 53.6423C70.2988 52.5916 70.7396 51.6335 71.3456 50.7681C71.9778 49.898 72.7451 49.1801 73.6474 48.6143C74.5714 48.0176 75.5848 47.6217 76.6877 47.4267L77.6642 52.9815C77.2704 53.0512 76.9297 53.1926 76.6423 53.406C76.3503 53.593 76.1115 53.8519 75.926 54.1826C75.7621 54.4824 75.6468 54.8277 75.5801 55.2186C75.5088 55.5833 75.5125 55.9889 75.591 56.4353L77.5232 67.4268C77.5971 67.847 77.732 68.2294 77.928 68.5738C78.1455 68.8874 78.3956 69.1546 78.6781 69.3754C78.956 69.57 79.2509 69.7074 79.5628 69.7877C79.901 69.8633 80.2408 69.8709 80.5822 69.8105L81.5656 75.4047ZM95.1134 72.8056L90.2653 45.2285L95.8191 44.2463L99.6976 66.308L108.954 64.6709L109.924 70.1864L95.1134 72.8056ZM119.834 68.4336L118.858 62.8787C118.91 62.8695 119.05 62.8177 119.277 62.7233C119.504 62.629 119.735 62.4798 119.97 62.2758C120.231 62.0671 120.429 61.8021 120.562 61.4807C120.721 61.1546 120.759 60.7552 120.676 60.2825L118.557 48.2273C118.547 48.1748 118.498 48.0481 118.408 47.8473C118.314 47.6202 118.165 47.3893 117.962 47.1545C117.753 46.8935 117.486 46.6835 117.161 46.5244C116.835 46.3654 116.436 46.3277 115.963 46.4113L114.986 40.8565C116.404 40.6057 117.65 40.6833 118.723 41.0893C119.818 41.4643 120.741 42.0187 121.493 42.7523C122.245 43.4859 122.841 44.2606 123.282 45.0762C123.723 45.8918 124 46.6148 124.11 47.2451L126.23 59.3003C126.484 60.7448 126.409 62.0171 126.007 63.1173C125.605 64.2175 125.037 65.144 124.303 65.8966C123.569 66.6493 122.791 67.2336 121.971 67.6495C121.151 68.0654 120.438 68.3267 119.834 68.4336ZM112.154 69.792L107.306 42.2149L112.859 41.2326L117.707 68.8097L112.154 69.792ZM150.086 63.2865L149.103 57.6923C149.444 57.6319 149.748 57.5105 150.013 57.3281C150.301 57.1148 150.542 56.8691 150.737 56.5909C150.953 56.2818 151.097 55.945 151.168 55.5803C151.266 55.211 151.277 54.8163 151.204 54.396L149.271 43.4046C149.193 42.9581 149.058 42.5758 148.867 42.2575C148.671 41.9131 148.431 41.6304 148.149 41.4096C147.888 41.1578 147.589 40.9941 147.25 40.9186C146.908 40.8167 146.539 40.8006 146.145 40.8703L145.169 35.3154C146.272 35.1204 147.346 35.1471 148.391 35.3955C149.463 35.6392 150.431 36.0638 151.296 36.6691C152.182 37.2436 152.92 37.9795 153.511 38.877C154.124 39.7435 154.525 40.7152 154.714 41.792L156.792 53.6108C156.995 54.7664 156.988 55.878 156.769 56.9457C156.577 58.0088 156.193 58.9838 155.618 59.8709C155.038 60.7317 154.274 61.4627 153.323 62.0641C152.399 62.6607 151.32 63.0682 150.086 63.2865ZM147.88 63.6766C146.777 63.8717 145.703 63.845 144.658 63.5966C143.608 63.3219 142.635 62.8711 141.74 62.2441C140.87 61.6125 140.125 60.8372 139.503 59.9181C138.907 58.9944 138.513 57.981 138.319 56.8779L136.241 45.0591C136.052 43.9823 136.084 42.934 136.338 41.9142C136.613 40.8635 137.054 39.9054 137.66 39.04C138.292 38.1699 139.06 37.452 139.962 36.8862C140.886 36.2895 141.899 35.8936 143.002 35.6986L143.979 41.2534C143.585 41.3231 143.244 41.4645 142.957 41.6779C142.665 41.8649 142.426 42.1238 142.241 42.4545C142.077 42.7543 141.961 43.0996 141.895 43.4905C141.823 43.8552 141.827 44.2608 141.906 44.7072L143.838 55.6987C143.912 56.1189 144.047 56.5013 144.243 56.8457C144.46 57.1593 144.71 57.4265 144.993 57.6473C145.271 57.8419 145.566 57.9793 145.877 58.0596C146.216 58.1352 146.555 58.1428 146.897 58.0824L147.88 63.6766ZM168.828 59.9718C168.251 60.074 167.49 60.0596 166.546 59.9286C165.629 59.7929 164.697 59.4974 163.751 59.0419C162.804 58.5865 161.954 57.9108 161.201 57.0149C160.448 56.1191 159.947 54.962 159.697 53.5438L156.186 33.5701L161.779 32.5809L165.291 52.5546C165.369 53.0011 165.526 53.3525 165.76 53.6089C166.021 53.8607 166.297 54.0421 166.587 54.1533C166.904 54.2598 167.174 54.3338 167.398 54.3755C167.643 54.3862 167.792 54.3869 167.845 54.3776L168.828 59.9718ZM170.955 59.5957L169.972 54.0015C170.024 53.9922 170.151 53.9427 170.352 53.853C170.574 53.7324 170.803 53.5701 171.038 53.3661C171.299 53.1574 171.509 52.8901 171.669 52.564C171.828 52.2379 171.868 51.8517 171.79 51.4052L168.278 31.4315L173.793 30.4562L177.304 50.4299C177.554 51.8482 177.477 53.1074 177.075 54.2076C176.699 55.3032 176.146 56.2404 175.417 57.0193C174.683 57.772 173.908 58.3694 173.092 58.8116C172.271 59.2275 171.559 59.4889 170.955 59.5957ZM186.271 56.6839L182.379 34.5434L176.628 35.5604L175.672 30.1238L192.728 27.1075L193.683 32.5441L187.933 33.5612L191.825 55.7016L186.271 56.6839Z" fill="black"/>
</g>
<defs>
<filter id="filter0_d_159_268" x="44.783" y="26.9105" width="156.827" height="61.4224" filterUnits="userSpaceOnUse" color-interpolation-filters="sRGB">
<feFlood flood-opacity="0" result="BackgroundImageFix"/>
<feColorMatrix in="SourceAlpha" type="matrix" values="0 0 0 0 0 0 0 0 0 0 0 0 0 0 0 0 0 0 127 0" result="hardAlpha"/>
<feOffset dy="4"/>
<feGaussianBlur stdDeviation="2"/>
<feComposite in2="hardAlpha" operator="out"/>
<feColorMatrix type="matrix" values="0 0 0 0 0 0 0 0 0 0 0 0 0 0 0 0 0 0 0.25 0"/>
<feBlend mode="normal" in2="BackgroundImageFix" result="effect1_dropShadow_159_268"/>
<feBlend mode="normal" in="SourceGraphic" in2="effect1_dropShadow_159_268" result="shape"/>
</filter>
</defs>
</svg>
