<svg width="50" height="50" viewBox="0 0 50 50" fill="none" xmlns="http://www.w3.org/2000/svg">
<path d="M46.8941 23.986C46.8982 23.986 46.9011 23.986 46.9051 23.986C47.1841 23.986 47.4501 23.869 47.6391 23.664C47.8312 23.456 47.9262 23.177 47.9011 22.895C46.8971 11.852 38.1541 3.10599 27.1101 2.09999C26.8301 2.07799 26.5481 2.16899 26.3401 2.36199C26.1321 2.55399 26.0161 2.82499 26.0191 3.10799C26.1931 17.784 28.1292 23.781 46.8941 23.986ZM46.8941 26.014C28.1292 26.219 26.1941 32.216 26.0201 46.892C26.0171 47.175 26.1331 47.446 26.3411 47.638C26.5271 47.809 26.7701 47.904 27.0201 47.904C27.0501 47.904 27.0811 47.903 27.1111 47.9C38.1551 46.894 46.8982 38.149 47.9011 27.105C47.9262 26.823 47.8321 26.544 47.6391 26.336C47.4461 26.128 47.1772 26.025 46.8941 26.014ZM22.8231 2.10499C11.8141 3.13999 3.09915 11.884 2.10015 22.897C2.07515 23.179 2.16915 23.458 2.36215 23.666C2.55115 23.871 2.81815 23.987 3.09615 23.987C3.10015 23.987 3.10415 23.987 3.10815 23.987C21.8111 23.772 23.7421 17.778 23.9181 3.11199C23.9211 2.82899 23.8041 2.55699 23.5961 2.36499C23.3861 2.17299 23.1051 2.07899 22.8231 2.10499ZM3.10715 26.013C2.79615 25.978 2.55215 26.126 2.36115 26.334C2.16915 26.542 2.07415 26.821 2.09915 27.103C3.09815 38.116 11.8141 46.86 22.8231 47.895C22.8541 47.898 22.8861 47.899 22.9171 47.899C23.1671 47.899 23.4091 47.805 23.5951 47.634C23.8031 47.442 23.9201 47.17 23.9171 46.887C23.7411 32.222 21.8111 26.228 3.10715 26.013Z" fill="black"/>
</svg>
